<svg width="877.53" height="177.49" viewBox="0 0 877.53 177.49" xmlns="http://www.w3.org/2000/svg" xmlns:xlink="http://www.w3.org/1999/xlink" id="Layer_2" overflow="hidden"><defs><linearGradient x1="805.48" y1="36.26" x2="758.69" y2="114.89" gradientUnits="userSpaceOnUse" id="linear-gradient"><stop offset="0.13" stop-color="#81A4BC"/><stop offset="1" stop-color="#03497A"/></linearGradient><linearGradient x1="195.38" y1="80.83" x2="231.88" y2="143.21" gradientUnits="userSpaceOnUse" id="linear-gradient-2"><stop offset="0" stop-color="#FED59F"/><stop offset="1" stop-color="#E0722A"/></linearGradient><linearGradient x1="360.51" y1="103.3" x2="406.96" y2="26.33" gradientUnits="userSpaceOnUse" id="linear-gradient-3"><stop offset="0" stop-color="#E0732B"/><stop offset="1" stop-color="#C22036"/></linearGradient><linearGradient x1="535.3" y1="84.41" x2="573.79" y2="147.45" gradientUnits="userSpaceOnUse" id="linear-gradient-4"><stop offset="0" stop-color="#C22036"/><stop offset="1" stop-color="#03497A"/></linearGradient></defs><g id="Objects_copy"><g><g><path d="M647.82 139.13C644.84 144.29 639.29 147.5 633.33 147.5L607.36 147.5 607.36 177.5 633.33 177.5C649.97 177.5 665.48 168.55 673.8 154.13L708.68 93.72 684.15 76.2 647.82 139.13Z" fill="#03497A"/><path d="M844.11 23.37C835.79 8.96 820.28 0 803.64 0L755.13 0C738.49 0 722.98 8.95 714.66 23.37L684.16 76.21 708.69 93.73 740.65 38.38C743.63 33.22 749.18 30.01 755.14 30.01L803.65 30.01C809.61 30.01 815.16 33.22 818.14 38.38L842.74 80.98 877.38 80.98 844.12 23.38Z" fill="url(#linear-gradient)"/></g><path d="M162.87 23.37C154.55 8.95 139.04 0 122.4 0L73.89 0C57.25 0 41.74 8.95 33.42 23.37L0.13 81.03 34.77 81.03 59.4 38.37C62.38 33.21 67.93 30 73.89 30L122.4 30C128.36 30 133.91 33.21 136.89 38.37L169.02 94.02 195.32 79.57 162.87 23.37Z" fill="#FED59F"/><g><path d="M244.2 147.49C238.24 147.49 232.69 144.28 229.71 139.12L195.32 79.56 169.02 94.01 203.72 154.12C212.04 168.53 227.55 177.49 244.19 177.49L268.92 177.49 268.92 147.49 244.19 147.49Z" fill="url(#linear-gradient-2)"/><path d="M307.2 139.13C304.22 144.29 298.67 147.5 292.71 147.5L268.93 147.5 268.93 177.5 292.71 177.5C309.35 177.5 324.86 168.55 333.18 154.13L362 104.21 336.33 88.68 307.2 139.13Z" fill="#E0732B"/><path d="M414.51 0C397.87 0 382.36 8.95 374.04 23.37L336.33 88.68 362 104.21 400.01 38.37C402.99 33.21 408.54 30 414.5 30L439.47 30 439.47 0 414.5 0Z" fill="url(#linear-gradient-3)"/><path d="M503.49 23.37C495.17 8.96 479.66 0 463.02 0L439.47 0 439.47 30 463.02 30C468.98 30 474.53 33.21 477.51 38.37L510.22 95.02 535.92 79.53 503.5 23.37Z" fill="#C22036"/><path d="M584.82 147.49C578.86 147.49 573.31 144.28 570.33 139.12L535.92 79.52 510.22 95.01 544.35 154.12C552.67 168.53 568.18 177.48 584.82 177.48L607.37 177.48 607.37 147.48 584.82 147.48Z" fill="url(#linear-gradient-4)"/></g><path d="M183.3 88.75 151.56 33.78C144.85 22.16 132.45 15 119.03 15L77.24 15C63.82 15 51.42 22.16 44.71 33.78L12.97 88.75" stroke="#FFFFFF" stroke-miterlimit="10" fill="none"/><path d="M523.92 88.75 492.18 33.78C485.47 22.16 473.07 15 459.65 15L417.86 15C404.44 15 392.04 22.16 385.33 33.78L353.59 88.75" stroke="#FFFFFF" stroke-miterlimit="10" fill="none"/><path d="M864.54 88.75 832.8 33.78C826.09 22.16 813.69 15 800.27 15L758.48 15C745.06 15 732.66 22.16 725.95 33.78L694.21 88.75" stroke="#FFFFFF" stroke-miterlimit="10" fill="none"/><path d="M353.61 88.75 321.87 143.72C315.16 155.34 302.76 162.5 289.34 162.5L247.55 162.5C234.13 162.5 221.73 155.34 215.02 143.72L183.28 88.75" stroke="#FFFFFF" stroke-miterlimit="10" fill="none"/><path d="M694.23 88.75 662.49 143.72C655.78 155.34 643.38 162.5 629.96 162.5L588.17 162.5C574.75 162.5 562.35 155.34 555.64 143.72L523.9 88.75" stroke="#FFFFFF" stroke-miterlimit="10" fill="none"/><path d="M844.11 154.13C835.79 168.54 820.28 177.5 803.64 177.5L755.13 177.5C738.49 177.5 722.98 168.55 714.66 154.13L647.83 38.37C644.85 33.21 639.3 30 633.34 30L584.83 30C578.87 30 573.32 33.21 570.34 38.37L535.93 97.97 503.51 154.13C495.19 168.54 479.68 177.5 463.04 177.5L414.53 177.5C397.89 177.5 382.38 168.55 374.06 154.13L336.35 88.82 307.22 38.37C304.24 33.21 298.69 30 292.73 30L244.22 30C238.26 30 232.71 33.21 229.73 38.37L195.34 97.93 162.89 154.13C154.57 168.54 139.06 177.5 122.42 177.5L73.91 177.5C57.27 177.5 41.76 168.55 33.44 154.13L0 96.25 25.98 81.25 59.4 139.13C62.38 144.29 67.93 147.5 73.89 147.5L122.4 147.5C128.36 147.5 133.91 144.29 136.89 139.13L169.02 83.48 203.72 23.37C212.05 8.95 227.56 0 244.2 0L292.71 0C309.35 0 324.86 8.95 333.18 23.37L362 73.29 400.01 139.13C402.99 144.29 408.54 147.5 414.5 147.5L463.01 147.5C468.97 147.5 474.52 144.29 477.5 139.13L510.21 82.48 544.34 23.37C552.66 8.96 568.17 0.01 584.81 0.01L633.32 0.01C649.96 0.01 665.47 8.96 673.79 23.38L740.62 139.14C743.6 144.3 749.15 147.51 755.11 147.51L803.62 147.51C809.58 147.51 815.13 144.3 818.11 139.14L851.53 81.26 877.51 96.26 844.09 154.14Z" fill="#FFFFFF"/><g><path d="M183.3 88.75 151.56 143.72C144.85 155.34 132.45 162.5 119.03 162.5L77.24 162.5C63.82 162.5 51.42 155.34 44.71 143.72L12.97 88.75" stroke="#D3D2D2" stroke-miterlimit="10" fill="none"/><path d="M523.92 88.75 492.18 143.72C485.47 155.34 473.07 162.5 459.65 162.5L417.86 162.5C404.44 162.5 392.04 155.34 385.33 143.72L353.59 88.75" stroke="#D3D2D2" stroke-miterlimit="10" fill="none"/><path d="M864.54 88.75 832.8 143.72C826.09 155.34 813.69 162.5 800.27 162.5L758.48 162.5C745.06 162.5 732.66 155.34 725.95 143.72L694.21 88.75" stroke="#D3D2D2" stroke-miterlimit="10" fill="none"/><path d="M353.61 88.75 321.87 33.78C315.16 22.16 302.76 15 289.34 15L247.55 15C234.13 15 221.73 22.16 215.02 33.78L183.28 88.75" stroke="#D3D2D2" stroke-miterlimit="10" fill="none"/><path d="M694.23 88.75 662.49 33.78C655.78 22.16 643.38 15 629.96 15L588.17 15C574.75 15 562.35 22.16 555.64 33.78L523.9 88.75" stroke="#D3D2D2" stroke-miterlimit="10" fill="none"/></g></g></g></svg>